# xmcd
#
# Track frame offsets:
#	150
#	18073
#	38784
#	58684
#	77477
#	96597
#	113010
#	131403
#	149350
#	167502
#	187745
#	212384
#	230666
#
# Disc length: 3559 seconds
#
# Revision: 0
# Processed by: cddbd v1.5.2PL0 Copyright (c) Steve Scherf et al.
# Submitted via: dBpowerAMP V4.0
#
DISCID=9f0de50d
DTITLE=Joan Armatrading - Into the Blues
DYEAR=1900
DGENRE=Blues
TTITLE0=A Woman in Love
TTITLE1=Play the Blues
TTITLE2=Into the Blues
TTITLE3=Liza
TTITLE4=Secular Songs
TTITLE5=My Baby's Gone
TTITLE6=DNA
TTITLE7=Baby Blue Eyes
TTITLE8=Deep Down
TTITLE9=There Ain't a Girl Alive
TTITLE10=Empty Highway
TTITLE11=Mama Papa
TTITLE12=Something's Gotta' Blow
EXTD=
EXTT0=
EXTT1=
EXTT2=
EXTT3=
EXTT4=
EXTT5=
EXTT6=
EXTT7=
EXTT8=
EXTT9=
EXTT10=
EXTT11=
EXTT12=
PLAYORDER=
